<?xml version="1.0" encoding="UTF-8"?>
<svg id="Layer_1" data-name="Layer 1" xmlns="http://www.w3.org/2000/svg" viewBox="0 0 2000 2000">
  <defs>
    <style>
      .cls-1 {
        fill: #d7a95a;
      }

      .cls-2 {
        fill: #0b0204;
      }

      .cls-3 {
        letter-spacing: -.01em;
      }

      .cls-3, .cls-4, .cls-5 {
        font-family: LeagueSpartan-Black, 'League Spartan';
        font-size: 290.7px;
        font-weight: 800;
        stroke: #000;
        stroke-miterlimit: 10;
        stroke-width: 6px;
      }

      .cls-4 {
        letter-spacing: .01em;
      }

      .cls-6 {
        letter-spacing: -.05em;
      }

      .cls-7 {
        letter-spacing: -.03em;
      }

      .cls-8 {
        letter-spacing: -.03em;
      }
    </style>
  </defs>
  <g>
    <path class="cls-2" d="M386.8,693.83c-2.29,7.38-4.59,15.78-6.87,25.2-2.55,9.92-4.59,18.58-6.62,28.25-7.38-.51-46.83-.76-81.18-.76-5.34,21.88-10.18,43.26-10.18,49.37-10.44-.25-21.12-.51-32.58-.51s-21.37.25-30.8.51c2.8-6.11,8.66-27.74,14.25-49.37-33.85,0-73.29.25-81.94.76,3.06-9.67,5.34-18.32,7.89-28.25,2.29-9.42,4.07-17.82,5.59-25.2,8.4.51,47.59.76,81.44.76,5.6-22.65,10.94-46.06,10.94-52.17,9.42.25,19.59.51,30.8.51s22.14-.25,32.58-.51c-3.06,6.11-9.17,29.52-15.02,52.17,34.35,0,74.06-.26,81.7-.76Z"/>
    <g>
      <g>
        <path class="cls-1" d="M403.58,1084.33c13.25-5.66,23.58-19.38,30.7-40.79,23.93-71.86-5.68-131.88-5.98-132.48-3.96-7.85-.84-17.46,7-21.45,3.81-1.94,8.01-2.18,11.8-1.05.3-1.86.6-3.75.92-5.69-3.23-6.77-11.48-20.72-24.7-20.72-21.42,0-48.42,19.14-52.5,44.74-3.82,23.94,1.86,128.9,5.1,179.01,6.97,1.67,17.47,2.76,27.66-1.58Z"/>
        <path class="cls-1" d="M502.86,766.1c-9.57,42.79-17.02,83.72-22.29,115.62-.05,1.4-.27,2.77-.67,4.09-.28,1.7-.55,3.38-.82,5.02,3.86-3.3,8.47-5.7,13.56-6.85,9.06-2.05,18.52-.02,25.95,5.55,9.04,6.77,21.67,16.26,35.75,26.92,16.61-154.39,51.63-240.56,72.16-279.64h-85.71c-.79,0-1.52.36-1.83.91-24.25,43.41-62.3,54.19-82.83,56.75-.31.04-.6.31-.74.69l-19.19,51.49h71.02l-4.35,19.45Z"/>
        <path class="cls-1" d="M312.33,1084.53c12.34-5.2,22.15-17.76,29.28-37.17-2.82-50.72-5.93-122.86-2.32-145.49,1.71-10.69,5.61-20.5,11.05-29.21-5.71-5.67-12.18-10.3-17.37-10.51-20.55-.7-47.69,18.55-51.87,44.76-3.82,23.95,1.86,129,5.1,179.08,6.63,1.59,16.48,2.61,26.13-1.45Z"/>
        <path class="cls-1" d="M220.41,1084.53c13.15-5.54,23.47-19.33,30.68-40.98l.59.2c-2.76-50.47-5.64-119.77-2.12-141.87,1.56-9.79,5.15-19.2,10.24-27.8-6.03-6.29-13.14-11.7-18.75-11.92-20.5-.7-47.69,18.55-51.87,44.76-3.82,23.95,1.86,129,5.1,179.08,6.63,1.59,16.47,2.61,26.13-1.45Z"/>
        <path class="cls-1" d="M499.73,915.3c-10.51,20.11-31.86,69.05-8.64,98.34,34.92,44.04,94.75,58.36,95.35,58.5,8.58,1.99,13.93,10.56,11.96,19.14-1.98,8.58-10.52,13.95-19.1,11.98-1.29-.3-15.68-3.7-34.93-12.09l7.95,39.19c1.75,8.64-3.83,17.07-12.47,18.82-8.64,1.75-17.07-3.83-18.82-12.47l-12.61-62.18c-9.05-1.59-25.03-2.19-42.15,7.55-32.26,18.34-55.66,65.94-67.67,137.66-1.31,7.8-8.07,13.33-15.73,13.33-.88,0-1.76-.07-2.66-.22-8.7-1.46-14.57-9.69-13.11-18.38,6.36-37.99,15.76-69.82,28.04-95.5-2.41.22-4.76.33-7.05.33-19.09,0-33.58-6.98-34.45-7.41l-8.25-4.06-.47-6.92c-6.23,5.69-13.12,10.14-20.69,13.26-9.21,3.8-18.28,5.13-26.48,5.13-18.86,0-33.13-7.05-33.97-7.48l-8.11-4.09-.6-8.74c-6.75,6.64-14.34,11.72-22.76,15.19-9.21,3.79-18.28,5.13-26.48,5.13-2.89,0-5.65-.18-8.3-.46,12.29,61.92,59.61,121.08,105.6,147.54,9.68,5.57,21.17,7.81,32.37,6.33,7.7-1.02,27.76-6.26,34.85-8.19l8.94-2.44,6.55,6.55c.5.47,15.34,14.36,39.13,11.84,73.65-7.86,143.09-22.81,183.25-118.09,23.83-56.52,50.83-120.58,25.96-142.55-25.66-22.67-102.34-80.47-134.45-104.52Z"/>
      </g>
      <path class="cls-2" d="M655.32,995.88c-14.12-12.47-42.67-34.86-71.18-56.73,15.21-162.32,50.76-249.93,70.98-288.16,5.21-9.85,4.9-21.42-.84-30.95-5.72-9.5-15.76-15.17-26.85-15.17h-86.63c-12.37,0-23.75,6.61-29.7,17.26-17.39,31.13-44.37,38.83-58.9,40.63-12.16,1.51-22.4,9.65-26.72,21.22l-20.15,54.07c-3.43,9.21-2.13,19.53,3.47,27.61,5.61,8.08,14.83,12.9,24.66,12.9h34.02c-4.68,22.05-8.78,43.31-12.31,62.78-8.52-6.55-19.08-11.13-31.83-11.13-17.11,0-35.89,6.87-51.44,18.86-9.53-9.21-22.6-18.25-37.64-18.85-19.03-.75-38.2,6.9-53.56,19.56-9.59-9.45-22.93-18.95-38.35-19.56-38.85-1.54-78.34,31.93-84.67,71.63-4.87,30.53,2.48,151.18,4.87,187.71.41,75.96,53.87,163.71,124.69,204.46,15.73,9.05,34.39,12.71,52.49,10.31,7.76-1.03,22.16-4.6,31.22-6.96,9.08,6.36,25.85,15.3,48.3,15.3,2.95,0,6-.15,9.14-.49,80.19-8.56,162.4-26.23,209.29-137.43,29.37-69.68,59.75-141.72,17.68-178.88ZM436.2,746.65l19.19-51.49c.14-.37.44-.65.74-.69,20.52-2.56,58.57-13.34,82.83-56.75.3-.54,1.04-.91,1.83-.91h85.71c-20.54,39.08-55.55,125.25-72.16,279.64-14.08-10.66-26.71-20.15-35.75-26.92-7.43-5.57-16.89-7.6-25.95-5.55-5.08,1.15-9.7,3.54-13.56,6.85.27-1.64.54-3.32.82-5.02.4-1.32.63-2.69.67-4.09,5.28-31.9,12.72-72.84,22.29-115.62l4.35-19.45h-71.02ZM448.02,882.88c-.31,1.93-.62,3.83-.92,5.69-3.79-1.13-8-.9-11.8,1.05-7.84,3.99-10.97,13.59-7,21.45.3.6,29.91,60.61,5.98,132.48-7.13,21.41-17.46,35.13-30.7,40.79-10.19,4.35-20.69,3.25-27.66,1.58-3.24-50.11-8.91-155.07-5.1-179.01,4.08-25.61,31.09-44.74,52.5-44.74,13.22,0,21.47,13.95,24.7,20.72ZM332.97,862.14c5.19.21,11.66,4.84,17.37,10.51-5.44,8.71-9.34,18.52-11.05,29.21-3.61,22.63-.51,94.77,2.32,145.49-7.12,19.41-16.94,31.97-29.28,37.17-9.65,4.06-19.5,3.05-26.13,1.46-3.24-50.08-8.92-155.13-5.1-179.08,4.18-26.21,31.32-45.46,51.87-44.76ZM189.18,906.9c4.18-26.21,31.37-45.46,51.87-44.76,5.61.22,12.72,5.63,18.75,11.92-5.09,8.6-8.68,18.01-10.24,27.8-3.53,22.09-.65,91.4,2.12,141.87l-.6-.2c-7.21,21.65-17.53,35.44-30.68,40.98-9.65,4.06-19.5,3.05-26.13,1.46-3.24-50.08-8.92-155.13-5.1-179.08ZM608.22,1162.36c-40.17,95.28-109.6,110.22-183.25,118.09-23.79,2.53-38.63-11.36-39.13-11.84l-6.55-6.55-8.94,2.44c-7.08,1.93-27.15,7.17-34.84,8.19-11.2,1.48-22.69-.76-32.37-6.33-45.99-26.46-93.31-85.62-105.6-147.54,2.64.28,5.41.46,8.3.46,8.2,0,17.27-1.33,26.48-5.13,8.42-3.47,16.01-8.55,22.76-15.19l.6,8.74,8.11,4.1c.85.43,15.12,7.48,33.97,7.48,8.2,0,17.27-1.33,26.48-5.13,7.57-3.12,14.46-7.57,20.69-13.26l.47,6.92,8.25,4.06c.87.43,15.35,7.41,34.45,7.41,2.29,0,4.65-.11,7.05-.33-12.28,25.68-21.67,57.51-28.04,95.5-1.46,8.7,4.41,16.93,13.11,18.38.89.15,1.78.22,2.66.22,7.66,0,14.42-5.53,15.73-13.33,12.01-71.72,35.42-119.32,67.67-137.66,17.12-9.74,33.1-9.14,42.15-7.55l12.61,62.18c1.75,8.64,10.18,14.22,18.82,12.47,8.64-1.75,14.23-10.18,12.47-18.82l-7.95-39.19c19.26,8.39,33.64,11.8,34.93,12.09,8.59,1.97,17.12-3.4,19.1-11.98,1.98-8.58-3.38-17.15-11.96-19.14-.6-.14-60.43-14.46-95.35-58.5-23.22-29.29-1.88-78.23,8.64-98.34,32.11,24.04,108.79,81.85,134.45,104.52,24.87,21.97-2.14,86.03-25.96,142.55Z"/>
    </g>
  </g>
  <g>
    <text class="cls-5" transform="translate(731.67 849.85)"><tspan class="cls-7" x="0" y="0">P</tspan><tspan class="cls-6" x="158.72" y="0">L</tspan><tspan class="cls-8" x="293.9" y="0">US</tspan></text>
    <text class="cls-3" transform="translate(731.68 1077.69)"><tspan x="0" y="0">ONE</tspan></text>
    <text class="cls-4" transform="translate(731.68 1299.18)"><tspan x="0" y="0">BLANKS</tspan></text>
  </g>
</svg>